<svg width="50" height="21" viewBox="0 0 50 21" fill="none" xmlns="http://www.w3.org/2000/svg">
<rect y="0.5" width="50" height="20" rx="10" fill="black"/>
<g clip-path="url(#clip0_670_809)">
<path fill-rule="evenodd" clip-rule="evenodd" d="M24.5001 3.27084C22.9571 3.27164 21.4646 3.81818 20.2895 4.81271C19.1145 5.80725 18.3336 7.18493 18.0864 8.69943C17.8392 10.2139 18.1419 11.7665 18.9403 13.0794C19.7386 14.3924 20.9807 15.3802 22.4443 15.8662C22.7672 15.9261 22.8889 15.726 22.8889 15.5558C22.8889 15.3857 22.8824 14.8923 22.8802 14.3529C21.072 14.7435 20.6899 13.5899 20.6899 13.5899C20.395 12.8407 19.9688 12.6438 19.9688 12.6438C19.3789 12.2435 20.0129 12.251 20.0129 12.251C20.6662 12.297 21.0096 12.9178 21.0096 12.9178C21.5886 13.9056 22.5304 13.6198 22.9007 13.4529C22.9588 13.0344 23.1278 12.7497 23.314 12.5881C21.8696 12.4255 20.3519 11.8711 20.3519 9.39461C20.343 8.75235 20.5827 8.13125 21.0214 7.6598C20.9547 7.49712 20.7319 6.84001 21.0849 5.94745C21.0849 5.94745 21.6306 5.77408 22.8727 6.60992C23.9381 6.32022 25.0622 6.32022 26.1276 6.60992C27.3686 5.77408 27.9132 5.94745 27.9132 5.94745C28.2673 6.83787 28.0445 7.49498 27.9778 7.6598C28.4179 8.13132 28.6581 8.75351 28.6483 9.39675C28.6483 11.8786 27.1275 12.4255 25.6809 12.5849C25.9134 12.7861 26.1211 13.1789 26.1211 13.7825C26.1211 14.6472 26.1136 15.3429 26.1136 15.5558C26.1136 15.7281 26.2309 15.9293 26.5602 15.8662C28.0241 15.3802 29.2662 14.3922 30.0646 13.079C30.863 11.7658 31.1655 10.213 30.918 8.69837C30.6705 7.18374 29.8892 5.80604 28.7138 4.81167C27.5384 3.81731 26.0456 3.27114 24.5023 3.27084H24.5001Z" fill="white"/>
<path d="M20.4616 12.5507C20.4476 12.5828 20.3959 12.5924 20.354 12.5699C20.312 12.5474 20.2808 12.5057 20.2958 12.4725C20.3109 12.4394 20.3615 12.4308 20.4035 12.4533C20.4455 12.4757 20.4777 12.5185 20.4616 12.5507Z" fill="white"/>
<path d="M20.7253 12.8428C20.703 12.854 20.6775 12.8571 20.6532 12.8517C20.6288 12.8462 20.6072 12.8325 20.5919 12.8129C20.5499 12.7679 20.5413 12.7059 20.5736 12.678C20.6059 12.6502 20.664 12.663 20.706 12.708C20.7479 12.7529 20.7576 12.815 20.7253 12.8428Z" fill="white"/>
<path d="M20.9815 13.2142C20.9416 13.242 20.8738 13.2142 20.8362 13.1585C20.8257 13.1486 20.8175 13.1366 20.8118 13.1234C20.8061 13.1101 20.8032 13.0959 20.8032 13.0815C20.8032 13.0671 20.8061 13.0529 20.8118 13.0396C20.8175 13.0264 20.8257 13.0144 20.8362 13.0044C20.876 12.9777 20.9438 13.0044 20.9815 13.059C21.0191 13.1136 21.0202 13.1864 20.9815 13.2142Z" fill="white"/>
<path d="M21.3292 13.5738C21.2936 13.6134 21.2215 13.6027 21.1623 13.5492C21.1031 13.4957 21.0891 13.4229 21.1247 13.3844C21.1602 13.3458 21.2323 13.3565 21.2936 13.409C21.355 13.4614 21.3668 13.5353 21.3292 13.5738Z" fill="white"/>
<path d="M21.8166 13.7836C21.8005 13.8339 21.7273 13.8563 21.6541 13.8349C21.5809 13.8135 21.5325 13.7536 21.5465 13.7022C21.5605 13.6508 21.6347 13.6273 21.709 13.6508C21.7833 13.6744 21.8306 13.7311 21.8166 13.7836Z" fill="white"/>
<path d="M22.3483 13.8199C22.3483 13.8724 22.2881 13.9173 22.2106 13.9184C22.1331 13.9195 22.0696 13.8767 22.0696 13.8242C22.0696 13.7718 22.1299 13.7268 22.2073 13.7258C22.2848 13.7247 22.3483 13.7664 22.3483 13.8199Z" fill="white"/>
<path d="M22.8435 13.7375C22.8532 13.79 22.7994 13.8445 22.7219 13.8574C22.6444 13.8702 22.5766 13.8392 22.5669 13.7878C22.5572 13.7364 22.6132 13.6808 22.6885 13.6669C22.7639 13.653 22.8338 13.6851 22.8435 13.7375Z" fill="white"/>
</g>
<defs>
<clipPath id="clip0_670_809">
<rect width="13" height="13" fill="white" transform="translate(18 3)"/>
</clipPath>
</defs>
</svg>
