<svg width="1288" height="1240" viewBox="0 0 1288 1240" fill="none" xmlns="http://www.w3.org/2000/svg">
<g clip-path="url(#clip0_2408_341)" filter="url(#filter0_d_2408_341)">
<rect width="1280" height="1232" transform="translate(4)" fill="#F0F0F0"/>
<g filter="url(#filter1_f_2408_341)">
<ellipse cx="215.423" cy="122.335" rx="215.423" ry="122.335" transform="matrix(-1 0 0 1 539.845 -104.792)" fill="#FFB800" fill-opacity="0.43"/>
</g>
<g filter="url(#filter2_f_2408_341)">
<ellipse cx="287.887" cy="114.568" rx="287.887" ry="114.568" transform="matrix(-1 0 0 1 1159 -108.568)" fill="#3F64E9" fill-opacity="0.43"/>
</g>
<g filter="url(#filter3_f_2408_341)">
<ellipse cx="348.5" cy="204" rx="348.5" ry="204" transform="matrix(-1 0 0 1 999 -198)" fill="#E93F3F" fill-opacity="0.23"/>
</g>
<g filter="url(#filter4_f_2408_341)">
<ellipse cx="953.577" cy="1239.97" rx="215.423" ry="139.035" fill="#FFB800" fill-opacity="0.43"/>
</g>
<g filter="url(#filter5_f_2408_341)">
<ellipse cx="698" cy="1175.5" rx="376" ry="190.5" fill="#E93F3F" fill-opacity="0.23"/>
</g>
<g filter="url(#filter6_f_2408_341)">
<ellipse cx="406.887" cy="1166.03" rx="287.887" ry="130.207" fill="#3F64E9" fill-opacity="0.43"/>
</g>
<path d="M1127.54 1206V1202.18H1128.1V1202.78H1128.15C1128.23 1202.57 1128.36 1202.42 1128.54 1202.3C1128.72 1202.19 1128.93 1202.13 1129.18 1202.13C1129.43 1202.13 1129.64 1202.19 1129.81 1202.3C1129.98 1202.42 1130.11 1202.57 1130.2 1202.78H1130.24C1130.34 1202.58 1130.49 1202.42 1130.68 1202.31C1130.88 1202.19 1131.11 1202.13 1131.38 1202.13C1131.73 1202.13 1132.01 1202.24 1132.22 1202.45C1132.44 1202.66 1132.55 1203 1132.55 1203.44V1206H1131.96V1203.44C1131.96 1203.16 1131.88 1202.96 1131.73 1202.84C1131.58 1202.72 1131.39 1202.66 1131.19 1202.66C1130.92 1202.66 1130.71 1202.74 1130.56 1202.9C1130.41 1203.06 1130.34 1203.27 1130.34 1203.51V1206H1129.74V1203.38C1129.74 1203.17 1129.67 1202.99 1129.53 1202.86C1129.39 1202.73 1129.21 1202.66 1128.99 1202.66C1128.84 1202.66 1128.69 1202.7 1128.56 1202.78C1128.43 1202.86 1128.32 1202.97 1128.24 1203.12C1128.16 1203.26 1128.12 1203.43 1128.12 1203.61V1206H1127.54ZM1134.7 1206.09C1134.46 1206.09 1134.24 1206.04 1134.04 1205.95C1133.85 1205.86 1133.69 1205.73 1133.57 1205.55C1133.46 1205.38 1133.4 1205.16 1133.4 1204.92C1133.4 1204.7 1133.44 1204.52 1133.53 1204.38C1133.62 1204.25 1133.73 1204.14 1133.87 1204.06C1134.02 1203.98 1134.18 1203.93 1134.35 1203.89C1134.53 1203.85 1134.7 1203.82 1134.88 1203.79C1135.11 1203.76 1135.3 1203.74 1135.45 1203.73C1135.59 1203.71 1135.7 1203.68 1135.76 1203.64C1135.83 1203.61 1135.87 1203.54 1135.87 1203.44V1203.42C1135.87 1203.18 1135.8 1202.99 1135.66 1202.85C1135.53 1202.72 1135.33 1202.65 1135.06 1202.65C1134.78 1202.65 1134.56 1202.71 1134.4 1202.83C1134.24 1202.96 1134.13 1203.09 1134.07 1203.23L1133.51 1203.03C1133.61 1202.79 1133.74 1202.61 1133.91 1202.49C1134.07 1202.35 1134.26 1202.26 1134.45 1202.21C1134.65 1202.16 1134.85 1202.13 1135.04 1202.13C1135.16 1202.13 1135.3 1202.15 1135.46 1202.18C1135.62 1202.21 1135.78 1202.26 1135.93 1202.35C1136.08 1202.44 1136.2 1202.58 1136.3 1202.76C1136.4 1202.94 1136.45 1203.18 1136.45 1203.48V1206H1135.87V1205.48H1135.84C1135.8 1205.57 1135.73 1205.65 1135.64 1205.75C1135.54 1205.84 1135.42 1205.92 1135.27 1205.99C1135.11 1206.06 1134.92 1206.09 1134.7 1206.09ZM1134.79 1205.56C1135.02 1205.56 1135.22 1205.52 1135.38 1205.43C1135.54 1205.33 1135.66 1205.22 1135.74 1205.07C1135.82 1204.93 1135.87 1204.78 1135.87 1204.62V1204.08C1135.84 1204.11 1135.79 1204.14 1135.7 1204.16C1135.62 1204.19 1135.52 1204.21 1135.41 1204.23C1135.31 1204.24 1135.2 1204.26 1135.1 1204.27C1135 1204.28 1134.91 1204.29 1134.85 1204.3C1134.7 1204.32 1134.56 1204.35 1134.42 1204.4C1134.29 1204.44 1134.19 1204.51 1134.11 1204.59C1134.03 1204.68 1133.99 1204.8 1133.99 1204.95C1133.99 1205.15 1134.06 1205.3 1134.21 1205.41C1134.37 1205.51 1134.56 1205.56 1134.79 1205.56ZM1138.92 1206.08C1138.6 1206.08 1138.32 1206 1138.08 1205.84C1137.84 1205.68 1137.65 1205.45 1137.51 1205.15C1137.37 1204.86 1137.3 1204.51 1137.3 1204.1C1137.3 1203.7 1137.37 1203.35 1137.51 1203.06C1137.65 1202.76 1137.84 1202.53 1138.08 1202.37C1138.33 1202.21 1138.61 1202.13 1138.93 1202.13C1139.18 1202.13 1139.38 1202.17 1139.52 1202.26C1139.67 1202.34 1139.78 1202.43 1139.86 1202.53C1139.93 1202.64 1139.99 1202.72 1140.04 1202.79H1140.09V1200.91H1140.67V1206H1140.11V1205.41H1140.04C1139.99 1205.48 1139.93 1205.57 1139.85 1205.68C1139.77 1205.78 1139.66 1205.87 1139.51 1205.96C1139.36 1206.04 1139.17 1206.08 1138.92 1206.08ZM1139 1205.55C1139.24 1205.55 1139.44 1205.49 1139.6 1205.37C1139.76 1205.24 1139.89 1205.07 1139.97 1204.85C1140.05 1204.63 1140.1 1204.38 1140.1 1204.09C1140.1 1203.81 1140.05 1203.56 1139.97 1203.34C1139.89 1203.13 1139.77 1202.96 1139.6 1202.84C1139.44 1202.72 1139.24 1202.66 1139 1202.66C1138.75 1202.66 1138.55 1202.72 1138.38 1202.85C1138.22 1202.98 1138.09 1203.15 1138.01 1203.37C1137.93 1203.58 1137.89 1203.82 1137.89 1204.09C1137.89 1204.36 1137.93 1204.61 1138.01 1204.83C1138.1 1205.05 1138.22 1205.23 1138.39 1205.36C1138.55 1205.49 1138.76 1205.55 1139 1205.55ZM1143.39 1206.08C1143.02 1206.08 1142.7 1206 1142.44 1205.84C1142.17 1205.67 1141.97 1205.44 1141.82 1205.15C1141.68 1204.85 1141.61 1204.51 1141.61 1204.12C1141.61 1203.73 1141.68 1203.38 1141.82 1203.09C1141.97 1202.79 1142.17 1202.55 1142.42 1202.39C1142.68 1202.22 1142.98 1202.13 1143.33 1202.13C1143.53 1202.13 1143.72 1202.17 1143.92 1202.23C1144.11 1202.3 1144.29 1202.41 1144.45 1202.55C1144.61 1202.7 1144.73 1202.9 1144.83 1203.14C1144.92 1203.38 1144.97 1203.68 1144.97 1204.04V1204.29H1142.03V1203.78H1144.37C1144.37 1203.57 1144.33 1203.37 1144.24 1203.21C1144.16 1203.04 1144.04 1202.9 1143.88 1202.81C1143.72 1202.71 1143.54 1202.66 1143.33 1202.66C1143.09 1202.66 1142.89 1202.72 1142.72 1202.83C1142.55 1202.95 1142.42 1203.1 1142.33 1203.28C1142.24 1203.46 1142.19 1203.66 1142.19 1203.87V1204.21C1142.19 1204.5 1142.24 1204.74 1142.34 1204.94C1142.44 1205.14 1142.58 1205.29 1142.76 1205.4C1142.94 1205.5 1143.15 1205.55 1143.39 1205.55C1143.54 1205.55 1143.68 1205.53 1143.81 1205.49C1143.93 1205.44 1144.04 1205.38 1144.13 1205.29C1144.22 1205.2 1144.29 1205.09 1144.34 1204.96L1144.91 1205.12C1144.85 1205.31 1144.75 1205.48 1144.61 1205.62C1144.47 1205.77 1144.29 1205.88 1144.09 1205.96C1143.88 1206.04 1143.65 1206.08 1143.39 1206.08ZM1147.83 1206V1200.91H1148.41V1202.79H1148.46C1148.5 1202.72 1148.56 1202.64 1148.64 1202.53C1148.72 1202.43 1148.83 1202.34 1148.97 1202.26C1149.12 1202.17 1149.32 1202.13 1149.57 1202.13C1149.89 1202.13 1150.17 1202.21 1150.42 1202.37C1150.66 1202.53 1150.85 1202.76 1150.99 1203.06C1151.13 1203.35 1151.2 1203.7 1151.2 1204.1C1151.2 1204.51 1151.13 1204.86 1150.99 1205.15C1150.85 1205.45 1150.66 1205.68 1150.42 1205.84C1150.17 1206 1149.89 1206.08 1149.58 1206.08C1149.33 1206.08 1149.13 1206.04 1148.99 1205.96C1148.84 1205.87 1148.73 1205.78 1148.65 1205.68C1148.57 1205.57 1148.5 1205.48 1148.46 1205.41H1148.39V1206H1147.83ZM1148.4 1204.09C1148.4 1204.38 1148.44 1204.63 1148.53 1204.85C1148.61 1205.07 1148.74 1205.24 1148.9 1205.37C1149.06 1205.49 1149.26 1205.55 1149.5 1205.55C1149.74 1205.55 1149.95 1205.49 1150.11 1205.36C1150.28 1205.23 1150.4 1205.05 1150.48 1204.83C1150.57 1204.61 1150.61 1204.36 1150.61 1204.09C1150.61 1203.82 1150.57 1203.58 1150.49 1203.37C1150.4 1203.15 1150.28 1202.98 1150.11 1202.85C1149.95 1202.72 1149.74 1202.66 1149.5 1202.66C1149.26 1202.66 1149.06 1202.72 1148.89 1202.84C1148.73 1202.96 1148.61 1203.13 1148.53 1203.34C1148.44 1203.56 1148.4 1203.81 1148.4 1204.09ZM1152.29 1207.43C1152.19 1207.43 1152.1 1207.42 1152.03 1207.41C1151.95 1207.39 1151.89 1207.38 1151.87 1207.36L1152.01 1206.85C1152.16 1206.88 1152.28 1206.89 1152.39 1206.88C1152.5 1206.88 1152.6 1206.83 1152.68 1206.74C1152.77 1206.65 1152.85 1206.51 1152.92 1206.32L1153.03 1206.02L1151.62 1202.18H1152.25L1153.31 1205.22H1153.35L1154.4 1202.18H1155.04L1153.42 1206.56C1153.34 1206.75 1153.25 1206.92 1153.15 1207.05C1153.04 1207.18 1152.91 1207.27 1152.77 1207.34C1152.63 1207.4 1152.47 1207.43 1152.29 1207.43ZM1159.25 1206.08C1158.89 1206.08 1158.58 1206 1158.32 1205.83C1158.06 1205.66 1157.87 1205.42 1157.73 1205.13C1157.59 1204.83 1157.52 1204.49 1157.52 1204.11C1157.52 1203.72 1157.59 1203.38 1157.73 1203.08C1157.88 1202.79 1158.08 1202.55 1158.33 1202.39C1158.59 1202.22 1158.89 1202.13 1159.24 1202.13C1159.51 1202.13 1159.75 1202.18 1159.96 1202.28C1160.18 1202.38 1160.36 1202.52 1160.49 1202.7C1160.63 1202.88 1160.72 1203.09 1160.75 1203.33H1160.16C1160.12 1203.15 1160.02 1203 1159.86 1202.86C1159.71 1202.73 1159.51 1202.66 1159.25 1202.66C1159.02 1202.66 1158.82 1202.72 1158.65 1202.84C1158.47 1202.96 1158.34 1203.12 1158.25 1203.34C1158.15 1203.55 1158.1 1203.8 1158.1 1204.09C1158.1 1204.39 1158.15 1204.64 1158.24 1204.86C1158.34 1205.08 1158.47 1205.25 1158.64 1205.37C1158.81 1205.49 1159.02 1205.55 1159.25 1205.55C1159.4 1205.55 1159.54 1205.53 1159.66 1205.47C1159.79 1205.42 1159.89 1205.34 1159.98 1205.24C1160.06 1205.14 1160.13 1205.03 1160.16 1204.89H1160.75C1160.72 1205.11 1160.63 1205.31 1160.5 1205.5C1160.37 1205.67 1160.2 1205.82 1159.99 1205.92C1159.78 1206.03 1159.53 1206.08 1159.25 1206.08ZM1164.27 1203.04L1163.74 1203.19C1163.71 1203.1 1163.66 1203.01 1163.6 1202.93C1163.53 1202.85 1163.45 1202.78 1163.34 1202.72C1163.23 1202.67 1163.09 1202.64 1162.92 1202.64C1162.68 1202.64 1162.49 1202.69 1162.33 1202.8C1162.18 1202.91 1162.1 1203.04 1162.1 1203.21C1162.1 1203.35 1162.15 1203.47 1162.26 1203.55C1162.37 1203.64 1162.53 1203.71 1162.76 1203.76L1163.32 1203.9C1163.67 1203.98 1163.92 1204.11 1164.09 1204.28C1164.25 1204.45 1164.34 1204.67 1164.34 1204.94C1164.34 1205.15 1164.28 1205.35 1164.15 1205.52C1164.03 1205.7 1163.85 1205.83 1163.63 1205.93C1163.4 1206.03 1163.14 1206.08 1162.85 1206.08C1162.46 1206.08 1162.14 1206 1161.88 1205.83C1161.62 1205.66 1161.46 1205.41 1161.4 1205.09L1161.95 1204.95C1162.01 1205.15 1162.11 1205.31 1162.25 1205.41C1162.4 1205.51 1162.6 1205.56 1162.84 1205.56C1163.11 1205.56 1163.33 1205.5 1163.49 1205.39C1163.65 1205.27 1163.73 1205.13 1163.73 1204.97C1163.73 1204.83 1163.69 1204.72 1163.59 1204.63C1163.5 1204.54 1163.36 1204.47 1163.17 1204.43L1162.53 1204.28C1162.18 1204.2 1161.92 1204.07 1161.76 1203.89C1161.6 1203.72 1161.51 1203.5 1161.51 1203.24C1161.51 1203.02 1161.57 1202.83 1161.7 1202.66C1161.82 1202.5 1161.99 1202.37 1162.2 1202.27C1162.41 1202.18 1162.65 1202.13 1162.92 1202.13C1163.29 1202.13 1163.59 1202.21 1163.81 1202.38C1164.02 1202.55 1164.18 1202.77 1164.27 1203.04ZM1165.77 1203.7V1206H1165.18V1200.91H1165.77V1202.78H1165.82C1165.91 1202.58 1166.04 1202.42 1166.22 1202.31C1166.4 1202.19 1166.64 1202.13 1166.94 1202.13C1167.2 1202.13 1167.43 1202.18 1167.62 1202.29C1167.82 1202.39 1167.97 1202.55 1168.08 1202.76C1168.19 1202.98 1168.24 1203.25 1168.24 1203.57V1206H1167.66V1203.61C1167.66 1203.31 1167.58 1203.08 1167.42 1202.91C1167.26 1202.74 1167.05 1202.66 1166.77 1202.66C1166.58 1202.66 1166.41 1202.7 1166.25 1202.78C1166.1 1202.86 1165.98 1202.98 1165.9 1203.14C1165.81 1203.29 1165.77 1203.48 1165.77 1203.7Z" fill="#808080" fill-opacity="0.25"/>
<path d="M120.75 1203.45C120.75 1203.18 120.816 1202.94 120.949 1202.71C121.081 1202.49 121.26 1202.31 121.483 1202.18C121.707 1202.04 121.955 1201.98 122.227 1201.98C122.462 1201.98 122.679 1202.03 122.878 1202.13C123.078 1202.23 123.244 1202.37 123.375 1202.54C123.506 1202.72 123.587 1202.92 123.619 1203.14H123.017C122.984 1202.97 122.892 1202.83 122.741 1202.72C122.59 1202.61 122.419 1202.55 122.227 1202.55C122.061 1202.55 121.91 1202.6 121.774 1202.68C121.638 1202.76 121.53 1202.87 121.449 1203C121.367 1203.14 121.327 1203.29 121.327 1203.45C121.327 1203.62 121.367 1203.77 121.449 1203.91C121.53 1204.04 121.638 1204.15 121.774 1204.23C121.91 1204.31 122.061 1204.35 122.227 1204.35C122.419 1204.35 122.581 1204.3 122.714 1204.19C122.848 1204.08 122.933 1203.94 122.967 1203.77H123.569C123.537 1203.99 123.46 1204.19 123.338 1204.37C123.215 1204.54 123.058 1204.68 122.865 1204.78C122.675 1204.88 122.462 1204.93 122.227 1204.93C121.955 1204.93 121.707 1204.86 121.483 1204.73C121.26 1204.6 121.081 1204.42 120.949 1204.2C120.816 1203.97 120.75 1203.73 120.75 1203.45ZM122.202 1206.08C121.84 1206.08 121.501 1206.01 121.183 1205.88C120.866 1205.74 120.587 1205.55 120.345 1205.31C120.105 1205.07 119.916 1204.79 119.778 1204.47C119.642 1204.16 119.575 1203.82 119.577 1203.45C119.578 1203.09 119.647 1202.75 119.783 1202.44C119.921 1202.12 120.109 1201.84 120.35 1201.6C120.59 1201.36 120.868 1201.17 121.185 1201.03C121.502 1200.9 121.84 1200.83 122.202 1200.83C122.565 1200.83 122.904 1200.9 123.221 1201.03C123.539 1201.17 123.817 1201.36 124.056 1201.6C124.296 1201.84 124.484 1202.12 124.62 1202.44C124.756 1202.75 124.825 1203.09 124.827 1203.45C124.828 1203.82 124.761 1204.16 124.625 1204.47C124.489 1204.79 124.301 1205.07 124.061 1205.31C123.821 1205.55 123.542 1205.74 123.223 1205.88C122.905 1206.01 122.565 1206.08 122.202 1206.08ZM122.202 1205.5C122.485 1205.5 122.751 1205.45 123 1205.34C123.248 1205.24 123.466 1205.09 123.653 1204.9C123.841 1204.72 123.987 1204.5 124.093 1204.25C124.199 1204 124.252 1203.74 124.25 1203.46C124.248 1203.17 124.194 1202.91 124.088 1202.66C123.982 1202.41 123.836 1202.19 123.648 1202.01C123.461 1201.82 123.244 1201.67 122.997 1201.57C122.75 1201.46 122.485 1201.41 122.202 1201.41C121.92 1201.41 121.656 1201.46 121.409 1201.57C121.162 1201.67 120.945 1201.82 120.757 1202.01C120.57 1202.2 120.423 1202.41 120.315 1202.66C120.209 1202.91 120.155 1203.17 120.153 1203.46C120.152 1203.74 120.204 1204 120.31 1204.25C120.416 1204.5 120.563 1204.71 120.75 1204.9C120.939 1205.09 121.157 1205.24 121.404 1205.34C121.652 1205.45 121.918 1205.5 122.202 1205.5ZM127.817 1206V1205.55L129.497 1203.71C129.695 1203.5 129.857 1203.31 129.985 1203.15C130.112 1202.99 130.207 1202.84 130.268 1202.7C130.331 1202.56 130.362 1202.41 130.362 1202.25C130.362 1202.07 130.319 1201.92 130.233 1201.79C130.149 1201.66 130.033 1201.55 129.885 1201.48C129.738 1201.41 129.572 1201.38 129.388 1201.38C129.192 1201.38 129.022 1201.42 128.876 1201.5C128.732 1201.58 128.62 1201.69 128.54 1201.83C128.462 1201.98 128.424 1202.15 128.424 1202.34H127.837C127.837 1202.04 127.906 1201.78 128.043 1201.56C128.181 1201.33 128.368 1201.15 128.605 1201.03C128.844 1200.9 129.111 1200.84 129.408 1200.84C129.706 1200.84 129.971 1200.9 130.201 1201.03C130.431 1201.15 130.612 1201.32 130.743 1201.54C130.874 1201.75 130.939 1201.99 130.939 1202.25C130.939 1202.44 130.905 1202.62 130.837 1202.8C130.771 1202.98 130.655 1203.18 130.489 1203.39C130.325 1203.61 130.097 1203.88 129.806 1204.19L128.662 1205.41V1205.45H131.029V1206H127.817ZM133.674 1206.07C133.299 1206.07 132.98 1205.97 132.717 1205.76C132.453 1205.56 132.252 1205.26 132.113 1204.87C131.974 1204.48 131.904 1204.01 131.904 1203.45C131.904 1202.9 131.974 1202.43 132.113 1202.05C132.254 1201.65 132.456 1201.36 132.719 1201.15C132.984 1200.94 133.303 1200.84 133.674 1200.84C134.045 1200.84 134.362 1200.94 134.626 1201.15C134.891 1201.36 135.093 1201.65 135.232 1202.05C135.373 1202.43 135.444 1202.9 135.444 1203.45C135.444 1204.01 135.374 1204.48 135.235 1204.87C135.096 1205.26 134.894 1205.56 134.631 1205.76C134.367 1205.97 134.048 1206.07 133.674 1206.07ZM133.674 1205.52C134.045 1205.52 134.333 1205.34 134.539 1204.99C134.744 1204.63 134.847 1204.12 134.847 1203.45C134.847 1203.01 134.8 1202.64 134.705 1202.33C134.613 1202.02 134.478 1201.78 134.303 1201.62C134.129 1201.46 133.919 1201.38 133.674 1201.38C133.306 1201.38 133.018 1201.56 132.811 1201.92C132.604 1202.28 132.501 1202.79 132.501 1203.45C132.501 1203.9 132.547 1204.27 132.64 1204.58C132.733 1204.89 132.866 1205.12 133.04 1205.28C133.216 1205.44 133.427 1205.52 133.674 1205.52ZM136.346 1206V1205.55L138.027 1203.71C138.224 1203.5 138.386 1203.31 138.514 1203.15C138.642 1202.99 138.736 1202.84 138.797 1202.7C138.86 1202.56 138.892 1202.41 138.892 1202.25C138.892 1202.07 138.849 1201.92 138.762 1201.79C138.678 1201.66 138.562 1201.55 138.414 1201.48C138.267 1201.41 138.101 1201.38 137.917 1201.38C137.722 1201.38 137.551 1201.42 137.405 1201.5C137.261 1201.58 137.149 1201.69 137.07 1201.83C136.992 1201.98 136.953 1202.15 136.953 1202.34H136.366C136.366 1202.04 136.435 1201.78 136.573 1201.56C136.71 1201.33 136.897 1201.15 137.134 1201.03C137.373 1200.9 137.641 1200.84 137.937 1200.84C138.235 1200.84 138.5 1200.9 138.73 1201.03C138.961 1201.15 139.141 1201.32 139.272 1201.54C139.403 1201.75 139.468 1201.99 139.468 1202.25C139.468 1202.44 139.434 1202.62 139.367 1202.8C139.3 1202.98 139.184 1203.18 139.019 1203.39C138.854 1203.61 138.627 1203.88 138.335 1204.19L137.191 1205.41V1205.45H139.558V1206H136.346ZM142.263 1206.07C141.935 1206.07 141.642 1206.01 141.385 1205.9C141.13 1205.79 140.927 1205.63 140.776 1205.43C140.627 1205.23 140.546 1204.99 140.533 1204.73H141.159C141.172 1204.89 141.229 1205.03 141.328 1205.15C141.428 1205.27 141.558 1205.36 141.718 1205.43C141.879 1205.49 142.057 1205.52 142.253 1205.52C142.472 1205.52 142.665 1205.48 142.834 1205.41C143.004 1205.33 143.136 1205.23 143.232 1205.09C143.328 1204.95 143.376 1204.8 143.376 1204.62C143.376 1204.43 143.33 1204.27 143.237 1204.12C143.144 1203.98 143.008 1203.87 142.83 1203.79C142.651 1203.7 142.432 1203.66 142.173 1203.66H141.766V1203.12H142.173C142.375 1203.12 142.553 1203.08 142.705 1203.01C142.859 1202.93 142.979 1202.83 143.066 1202.7C143.153 1202.57 143.197 1202.41 143.197 1202.23C143.197 1202.06 143.159 1201.91 143.083 1201.78C143.007 1201.65 142.899 1201.55 142.76 1201.48C142.622 1201.41 142.46 1201.38 142.273 1201.38C142.097 1201.38 141.931 1201.41 141.776 1201.47C141.621 1201.54 141.495 1201.63 141.398 1201.75C141.3 1201.87 141.247 1202.01 141.239 1202.18H140.642C140.652 1201.92 140.732 1201.68 140.883 1201.48C141.034 1201.28 141.231 1201.12 141.475 1201.01C141.72 1200.9 141.989 1200.84 142.283 1200.84C142.597 1200.84 142.868 1200.9 143.093 1201.03C143.318 1201.16 143.492 1201.32 143.613 1201.53C143.734 1201.74 143.794 1201.96 143.794 1202.2C143.794 1202.49 143.719 1202.73 143.568 1202.94C143.419 1203.14 143.216 1203.28 142.959 1203.36V1203.39C143.28 1203.45 143.531 1203.58 143.712 1203.81C143.893 1204.02 143.983 1204.29 143.983 1204.62C143.983 1204.89 143.908 1205.14 143.757 1205.36C143.608 1205.58 143.404 1205.75 143.145 1205.88C142.887 1206.01 142.593 1206.07 142.263 1206.07ZM151.07 1202.5H150.454C150.417 1202.32 150.354 1202.17 150.263 1202.03C150.173 1201.9 150.064 1201.79 149.934 1201.69C149.807 1201.6 149.665 1201.53 149.509 1201.49C149.354 1201.44 149.191 1201.42 149.022 1201.42C148.714 1201.42 148.435 1201.49 148.184 1201.65C147.936 1201.81 147.738 1202.04 147.59 1202.34C147.444 1202.64 147.372 1203.01 147.372 1203.45C147.372 1203.9 147.444 1204.27 147.59 1204.57C147.738 1204.87 147.936 1205.1 148.184 1205.26C148.435 1205.42 148.714 1205.49 149.022 1205.49C149.191 1205.49 149.354 1205.47 149.509 1205.42C149.665 1205.38 149.807 1205.31 149.934 1205.22C150.064 1205.12 150.173 1205.01 150.263 1204.88C150.354 1204.74 150.417 1204.58 150.454 1204.41H151.07C151.024 1204.67 150.94 1204.9 150.817 1205.11C150.694 1205.31 150.542 1205.49 150.359 1205.63C150.177 1205.77 149.973 1205.88 149.746 1205.96C149.52 1206.03 149.279 1206.07 149.022 1206.07C148.588 1206.07 148.202 1205.96 147.864 1205.75C147.526 1205.54 147.26 1205.24 147.066 1204.85C146.872 1204.46 146.775 1203.99 146.775 1203.45C146.775 1202.92 146.872 1202.45 147.066 1202.06C147.26 1201.67 147.526 1201.37 147.864 1201.16C148.202 1200.95 148.588 1200.84 149.022 1200.84C149.279 1200.84 149.52 1200.88 149.746 1200.95C149.973 1201.03 150.177 1201.14 150.359 1201.28C150.542 1201.42 150.694 1201.6 150.817 1201.8C150.94 1202.01 151.024 1202.24 151.07 1202.5ZM152.532 1200.91V1206H151.945V1200.91H152.532ZM155.165 1206.08C154.797 1206.08 154.48 1206 154.213 1205.84C153.948 1205.67 153.743 1205.44 153.599 1205.15C153.456 1204.85 153.385 1204.51 153.385 1204.12C153.385 1203.73 153.456 1203.38 153.599 1203.09C153.743 1202.79 153.944 1202.55 154.201 1202.39C154.459 1202.22 154.761 1202.13 155.105 1202.13C155.304 1202.13 155.501 1202.17 155.695 1202.23C155.888 1202.3 156.065 1202.41 156.224 1202.55C156.383 1202.7 156.51 1202.9 156.604 1203.14C156.699 1203.38 156.746 1203.68 156.746 1204.04V1204.29H153.803V1203.78H156.149C156.149 1203.57 156.106 1203.37 156.02 1203.21C155.936 1203.04 155.815 1202.9 155.657 1202.81C155.501 1202.71 155.318 1202.66 155.105 1202.66C154.872 1202.66 154.67 1202.72 154.499 1202.83C154.33 1202.95 154.2 1203.1 154.109 1203.28C154.017 1203.46 153.972 1203.66 153.972 1203.87V1204.21C153.972 1204.5 154.022 1204.74 154.121 1204.94C154.222 1205.14 154.362 1205.29 154.541 1205.4C154.72 1205.5 154.928 1205.55 155.165 1205.55C155.319 1205.55 155.458 1205.53 155.583 1205.49C155.709 1205.44 155.817 1205.38 155.908 1205.29C155.999 1205.2 156.07 1205.09 156.12 1204.96L156.686 1205.12C156.627 1205.31 156.526 1205.48 156.386 1205.62C156.245 1205.77 156.071 1205.88 155.864 1205.96C155.656 1206.04 155.424 1206.08 155.165 1206.08ZM154.807 1201.66L155.414 1200.51H156.1L155.324 1201.66H154.807ZM157.596 1206V1202.18H158.163V1202.78H158.213C158.292 1202.57 158.421 1202.42 158.598 1202.3C158.776 1202.19 158.988 1202.13 159.237 1202.13C159.489 1202.13 159.699 1202.19 159.866 1202.3C160.035 1202.42 160.167 1202.57 160.261 1202.78H160.301C160.399 1202.58 160.545 1202.42 160.741 1202.31C160.937 1202.19 161.171 1202.13 161.444 1202.13C161.786 1202.13 162.065 1202.24 162.282 1202.45C162.499 1202.66 162.608 1203 162.608 1203.44V1206H162.021V1203.44C162.021 1203.16 161.944 1202.96 161.79 1202.84C161.636 1202.72 161.454 1202.66 161.246 1202.66C160.977 1202.66 160.769 1202.74 160.622 1202.9C160.474 1203.06 160.4 1203.27 160.4 1203.51V1206H159.804V1203.38C159.804 1203.17 159.733 1202.99 159.593 1202.86C159.452 1202.73 159.27 1202.66 159.048 1202.66C158.896 1202.66 158.753 1202.7 158.621 1202.78C158.49 1202.86 158.384 1202.97 158.302 1203.12C158.223 1203.26 158.183 1203.43 158.183 1203.61V1206H157.596ZM165.239 1206.08C164.871 1206.08 164.554 1206 164.287 1205.84C164.022 1205.67 163.817 1205.44 163.673 1205.15C163.531 1204.85 163.459 1204.51 163.459 1204.12C163.459 1203.73 163.531 1203.38 163.673 1203.09C163.817 1202.79 164.018 1202.55 164.275 1202.39C164.533 1202.22 164.835 1202.13 165.18 1202.13C165.378 1202.13 165.575 1202.17 165.769 1202.23C165.963 1202.3 166.139 1202.41 166.298 1202.55C166.457 1202.7 166.584 1202.9 166.679 1203.14C166.773 1203.38 166.82 1203.68 166.82 1204.04V1204.29H163.877V1203.78H166.224C166.224 1203.57 166.181 1203.37 166.094 1203.21C166.01 1203.04 165.889 1202.9 165.731 1202.81C165.576 1202.71 165.392 1202.66 165.18 1202.66C164.946 1202.66 164.744 1202.72 164.573 1202.83C164.404 1202.95 164.274 1203.1 164.183 1203.28C164.092 1203.46 164.046 1203.66 164.046 1203.87V1204.21C164.046 1204.5 164.096 1204.74 164.195 1204.94C164.296 1205.14 164.436 1205.29 164.615 1205.4C164.794 1205.5 165.002 1205.55 165.239 1205.55C165.393 1205.55 165.533 1205.53 165.657 1205.49C165.783 1205.44 165.891 1205.38 165.983 1205.29C166.074 1205.2 166.144 1205.09 166.194 1204.96L166.761 1205.12C166.701 1205.31 166.601 1205.48 166.46 1205.62C166.319 1205.77 166.145 1205.88 165.938 1205.96C165.731 1206.04 165.498 1206.08 165.239 1206.08ZM168.257 1203.7V1206H167.671V1202.18H168.237V1202.78H168.287C168.377 1202.58 168.512 1202.43 168.695 1202.31C168.877 1202.19 169.112 1202.13 169.401 1202.13C169.659 1202.13 169.885 1202.19 170.079 1202.29C170.273 1202.4 170.424 1202.55 170.532 1202.77C170.639 1202.98 170.693 1203.25 170.693 1203.57V1206H170.107V1203.61C170.107 1203.31 170.029 1203.08 169.873 1202.91C169.717 1202.74 169.503 1202.66 169.232 1202.66C169.044 1202.66 168.877 1202.7 168.73 1202.78C168.584 1202.86 168.469 1202.98 168.384 1203.14C168.3 1203.29 168.257 1203.48 168.257 1203.7ZM173.384 1202.18V1202.68H171.405V1202.18H173.384ZM171.982 1201.27H172.569V1204.91C172.569 1205.07 172.593 1205.2 172.641 1205.28C172.69 1205.36 172.753 1205.42 172.83 1205.44C172.907 1205.47 172.989 1205.48 173.076 1205.48C173.14 1205.48 173.193 1205.48 173.235 1205.47C173.276 1205.46 173.309 1205.46 173.334 1205.45L173.453 1205.98C173.414 1206 173.358 1206.01 173.287 1206.02C173.216 1206.04 173.125 1206.05 173.016 1206.05C172.85 1206.05 172.688 1206.01 172.529 1205.94C172.371 1205.87 172.24 1205.76 172.136 1205.62C172.033 1205.47 171.982 1205.29 171.982 1205.07V1201.27ZM179.015 1202.18C178.985 1201.93 178.864 1201.73 178.652 1201.6C178.44 1201.46 178.179 1201.39 177.871 1201.39C177.646 1201.39 177.449 1201.42 177.28 1201.5C177.112 1201.57 176.981 1201.67 176.887 1201.8C176.794 1201.92 176.748 1202.07 176.748 1202.23C176.748 1202.37 176.78 1202.48 176.845 1202.58C176.911 1202.68 176.995 1202.76 177.098 1202.82C177.201 1202.89 177.309 1202.94 177.421 1202.98C177.534 1203.02 177.638 1203.05 177.732 1203.08L178.249 1203.22C178.382 1203.25 178.529 1203.3 178.692 1203.36C178.856 1203.42 179.012 1203.51 179.161 1203.61C179.312 1203.72 179.436 1203.85 179.534 1204.01C179.632 1204.18 179.681 1204.38 179.681 1204.62C179.681 1204.89 179.609 1205.14 179.465 1205.36C179.322 1205.59 179.113 1205.76 178.838 1205.89C178.565 1206.02 178.233 1206.09 177.841 1206.09C177.477 1206.09 177.161 1206.03 176.894 1205.91C176.629 1205.8 176.42 1205.63 176.268 1205.42C176.117 1205.21 176.032 1204.97 176.012 1204.69H176.648C176.665 1204.88 176.729 1205.04 176.842 1205.16C176.956 1205.29 177.101 1205.38 177.275 1205.44C177.45 1205.5 177.639 1205.53 177.841 1205.53C178.077 1205.53 178.288 1205.49 178.475 1205.42C178.663 1205.34 178.811 1205.23 178.92 1205.1C179.03 1204.96 179.084 1204.79 179.084 1204.61C179.084 1204.44 179.037 1204.3 178.943 1204.2C178.848 1204.09 178.724 1204 178.57 1203.94C178.416 1203.87 178.249 1203.81 178.07 1203.76L177.444 1203.58C177.046 1203.47 176.731 1203.31 176.499 1203.09C176.267 1202.88 176.151 1202.6 176.151 1202.26C176.151 1201.98 176.228 1201.73 176.382 1201.52C176.538 1201.3 176.747 1201.14 177.009 1201.02C177.272 1200.9 177.566 1200.84 177.891 1200.84C178.219 1200.84 178.511 1200.9 178.766 1201.02C179.021 1201.13 179.224 1201.29 179.373 1201.49C179.523 1201.7 179.603 1201.92 179.611 1202.18H179.015ZM181.697 1206.09C181.455 1206.09 181.235 1206.04 181.038 1205.95C180.841 1205.86 180.684 1205.73 180.568 1205.55C180.452 1205.38 180.394 1205.16 180.394 1204.92C180.394 1204.7 180.437 1204.52 180.523 1204.38C180.609 1204.25 180.725 1204.14 180.869 1204.06C181.013 1203.98 181.172 1203.93 181.346 1203.89C181.522 1203.85 181.698 1203.82 181.875 1203.79C182.108 1203.76 182.296 1203.74 182.44 1203.73C182.586 1203.71 182.692 1203.68 182.758 1203.64C182.826 1203.61 182.86 1203.54 182.86 1203.44V1203.42C182.86 1203.18 182.793 1202.99 182.659 1202.85C182.526 1202.72 182.325 1202.65 182.054 1202.65C181.774 1202.65 181.555 1202.71 181.396 1202.83C181.237 1202.96 181.125 1203.09 181.06 1203.23L180.503 1203.03C180.603 1202.79 180.735 1202.61 180.901 1202.49C181.068 1202.35 181.251 1202.26 181.448 1202.21C181.647 1202.16 181.842 1202.13 182.035 1202.13C182.157 1202.13 182.298 1202.15 182.457 1202.18C182.618 1202.21 182.773 1202.26 182.922 1202.35C183.073 1202.44 183.198 1202.58 183.297 1202.76C183.397 1202.94 183.447 1203.18 183.447 1203.48V1206H182.86V1205.48H182.83C182.79 1205.57 182.724 1205.65 182.631 1205.75C182.538 1205.84 182.415 1205.92 182.261 1205.99C182.107 1206.06 181.919 1206.09 181.697 1206.09ZM181.786 1205.56C182.018 1205.56 182.214 1205.52 182.373 1205.43C182.533 1205.33 182.654 1205.22 182.736 1205.07C182.818 1204.93 182.86 1204.78 182.86 1204.62V1204.08C182.835 1204.11 182.78 1204.14 182.696 1204.16C182.613 1204.19 182.517 1204.21 182.407 1204.23C182.3 1204.24 182.195 1204.26 182.092 1204.27C181.991 1204.28 181.909 1204.29 181.846 1204.3C181.693 1204.32 181.551 1204.35 181.418 1204.4C181.287 1204.44 181.181 1204.51 181.1 1204.59C181.02 1204.68 180.981 1204.8 180.981 1204.95C180.981 1205.15 181.056 1205.3 181.207 1205.41C181.359 1205.51 181.552 1205.56 181.786 1205.56ZM184.475 1206V1202.18H185.062V1206H184.475ZM184.774 1201.55C184.659 1201.55 184.561 1201.51 184.478 1201.43C184.397 1201.35 184.356 1201.26 184.356 1201.15C184.356 1201.04 184.397 1200.94 184.478 1200.87C184.561 1200.79 184.659 1200.75 184.774 1200.75C184.888 1200.75 184.986 1200.79 185.067 1200.87C185.15 1200.94 185.191 1201.04 185.191 1201.15C185.191 1201.26 185.15 1201.35 185.067 1201.43C184.986 1201.51 184.888 1201.55 184.774 1201.55ZM186.681 1203.7V1206H186.094V1202.18H186.661V1202.78H186.711C186.8 1202.58 186.936 1202.43 187.119 1202.31C187.301 1202.19 187.536 1202.13 187.825 1202.13C188.083 1202.13 188.309 1202.19 188.503 1202.29C188.697 1202.4 188.848 1202.55 188.956 1202.77C189.063 1202.98 189.117 1203.25 189.117 1203.57V1206H188.53V1203.61C188.53 1203.31 188.453 1203.08 188.297 1202.91C188.141 1202.74 187.927 1202.66 187.655 1202.66C187.468 1202.66 187.301 1202.7 187.153 1202.78C187.008 1202.86 186.892 1202.98 186.808 1203.14C186.723 1203.29 186.681 1203.48 186.681 1203.7ZM191.808 1202.18V1202.68H189.829V1202.18H191.808ZM190.406 1201.27H190.992V1204.91C190.992 1205.07 191.016 1205.2 191.064 1205.28C191.114 1205.36 191.177 1205.42 191.253 1205.44C191.331 1205.47 191.413 1205.48 191.499 1205.48C191.564 1205.48 191.617 1205.48 191.659 1205.47C191.7 1205.46 191.733 1205.46 191.758 1205.45L191.877 1205.98C191.837 1206 191.782 1206.01 191.711 1206.02C191.639 1206.04 191.549 1206.05 191.44 1206.05C191.274 1206.05 191.112 1206.01 190.953 1205.94C190.795 1205.87 190.664 1205.76 190.56 1205.62C190.457 1205.47 190.406 1205.29 190.406 1205.07V1201.27ZM194.699 1203.54V1204.09H192.472V1203.54H194.699ZM195.769 1206V1200.91H196.385V1203.18H199.1V1200.91H199.716V1206H199.1V1203.72H196.385V1206H195.769ZM200.829 1206V1202.18H201.415V1206H200.829ZM201.127 1201.55C201.013 1201.55 200.914 1201.51 200.831 1201.43C200.75 1201.35 200.709 1201.26 200.709 1201.15C200.709 1201.04 200.75 1200.94 200.831 1200.87C200.914 1200.79 201.013 1200.75 201.127 1200.75C201.241 1200.75 201.339 1200.79 201.42 1200.87C201.503 1200.94 201.545 1201.04 201.545 1201.15C201.545 1201.26 201.503 1201.35 201.42 1201.43C201.339 1201.51 201.241 1201.55 201.127 1201.55ZM203.035 1200.91V1206H202.448V1200.91H203.035ZM205.191 1206.09C204.949 1206.09 204.729 1206.04 204.532 1205.95C204.335 1205.86 204.178 1205.73 204.062 1205.55C203.946 1205.38 203.888 1205.16 203.888 1204.92C203.888 1204.7 203.931 1204.52 204.017 1204.38C204.103 1204.25 204.219 1204.14 204.363 1204.06C204.507 1203.98 204.666 1203.93 204.84 1203.89C205.016 1203.85 205.192 1203.82 205.37 1203.79C205.602 1203.76 205.79 1203.74 205.934 1203.73C206.08 1203.71 206.186 1203.68 206.252 1203.64C206.32 1203.61 206.354 1203.54 206.354 1203.44V1203.42C206.354 1203.18 206.287 1202.99 206.153 1202.85C206.02 1202.72 205.819 1202.65 205.549 1202.65C205.268 1202.65 205.049 1202.71 204.89 1202.83C204.731 1202.96 204.619 1203.09 204.554 1203.23L203.997 1203.03C204.097 1202.79 204.229 1202.61 204.395 1202.49C204.563 1202.35 204.745 1202.26 204.942 1202.21C205.141 1202.16 205.336 1202.13 205.529 1202.13C205.651 1202.13 205.792 1202.15 205.951 1202.18C206.112 1202.21 206.267 1202.26 206.416 1202.35C206.567 1202.44 206.692 1202.58 206.791 1202.76C206.891 1202.94 206.941 1203.18 206.941 1203.48V1206H206.354V1205.48H206.324C206.284 1205.57 206.218 1205.65 206.125 1205.75C206.032 1205.84 205.909 1205.92 205.755 1205.99C205.601 1206.06 205.413 1206.09 205.191 1206.09ZM205.28 1205.56C205.512 1205.56 205.708 1205.52 205.867 1205.43C206.027 1205.33 206.148 1205.22 206.23 1205.07C206.313 1204.93 206.354 1204.78 206.354 1204.62V1204.08C206.329 1204.11 206.274 1204.14 206.19 1204.16C206.107 1204.19 206.011 1204.21 205.902 1204.23C205.794 1204.24 205.689 1204.26 205.586 1204.27C205.485 1204.28 205.403 1204.29 205.34 1204.3C205.187 1204.32 205.045 1204.35 204.912 1204.4C204.781 1204.44 204.675 1204.51 204.594 1204.59C204.514 1204.68 204.475 1204.8 204.475 1204.95C204.475 1205.15 204.55 1205.3 204.701 1205.41C204.853 1205.51 205.046 1205.56 205.28 1205.56ZM207.969 1206V1202.18H208.556V1206H207.969ZM208.268 1201.55C208.153 1201.55 208.055 1201.51 207.972 1201.43C207.891 1201.35 207.85 1201.26 207.85 1201.15C207.85 1201.04 207.891 1200.94 207.972 1200.87C208.055 1200.79 208.153 1200.75 208.268 1200.75C208.382 1200.75 208.48 1200.79 208.561 1200.87C208.644 1200.94 208.685 1201.04 208.685 1201.15C208.685 1201.26 208.644 1201.35 208.561 1201.43C208.48 1201.51 208.382 1201.55 208.268 1201.55ZM209.588 1206V1202.18H210.155V1202.76H210.195C210.265 1202.57 210.391 1202.42 210.573 1202.3C210.755 1202.18 210.961 1202.12 211.189 1202.12C211.232 1202.12 211.286 1202.12 211.351 1202.12C211.416 1202.13 211.464 1202.13 211.498 1202.13V1202.73C211.478 1202.72 211.432 1202.72 211.361 1202.71C211.291 1202.69 211.218 1202.69 211.14 1202.69C210.954 1202.69 210.788 1202.73 210.642 1202.81C210.498 1202.88 210.384 1202.99 210.299 1203.12C210.217 1203.26 210.175 1203.41 210.175 1203.58V1206H209.588ZM213.636 1206.08C213.268 1206.08 212.95 1206 212.684 1205.84C212.418 1205.67 212.214 1205.44 212.07 1205.15C211.927 1204.85 211.856 1204.51 211.856 1204.12C211.856 1203.73 211.927 1203.38 212.07 1203.09C212.214 1202.79 212.414 1202.55 212.671 1202.39C212.93 1202.22 213.231 1202.13 213.576 1202.13C213.775 1202.13 213.971 1202.17 214.165 1202.23C214.359 1202.3 214.535 1202.41 214.695 1202.55C214.854 1202.7 214.98 1202.9 215.075 1203.14C215.169 1203.38 215.217 1203.68 215.217 1204.04V1204.29H212.273V1203.78H214.62C214.62 1203.57 214.577 1203.37 214.491 1203.21C214.406 1203.04 214.285 1202.9 214.128 1202.81C213.972 1202.71 213.788 1202.66 213.576 1202.66C213.342 1202.66 213.14 1202.72 212.969 1202.83C212.8 1202.95 212.67 1203.1 212.579 1203.28C212.488 1203.46 212.442 1203.66 212.442 1203.87V1204.21C212.442 1204.5 212.492 1204.74 212.592 1204.94C212.693 1205.14 212.833 1205.29 213.012 1205.4C213.191 1205.5 213.399 1205.55 213.636 1205.55C213.79 1205.55 213.929 1205.53 214.053 1205.49C214.179 1205.44 214.288 1205.38 214.379 1205.29C214.47 1205.2 214.54 1205.09 214.59 1204.96L215.157 1205.12C215.097 1205.31 214.997 1205.48 214.856 1205.62C214.715 1205.77 214.541 1205.88 214.334 1205.96C214.127 1206.04 213.894 1206.08 213.636 1206.08ZM216.495 1206.04C216.372 1206.04 216.267 1206 216.179 1205.91C216.091 1205.82 216.047 1205.71 216.047 1205.59C216.047 1205.47 216.091 1205.36 216.179 1205.28C216.267 1205.19 216.372 1205.14 216.495 1205.14C216.617 1205.14 216.722 1205.19 216.81 1205.28C216.898 1205.36 216.942 1205.47 216.942 1205.59C216.942 1205.67 216.921 1205.75 216.88 1205.82C216.84 1205.88 216.786 1205.94 216.718 1205.98C216.652 1206.02 216.577 1206.04 216.495 1206.04ZM220.168 1206H219.522L221.391 1200.91H222.027L223.897 1206H223.25L221.729 1201.71H221.689L220.168 1206ZM220.406 1204.01H223.012V1204.56H220.406V1204.01ZM225.155 1200.91V1206H224.568V1200.91H225.155ZM226.774 1200.91V1206H226.187V1200.91H226.774ZM229.812 1206V1200.91H231.533C231.93 1200.91 232.257 1200.98 232.512 1201.11C232.767 1201.25 232.956 1201.43 233.079 1201.67C233.201 1201.9 233.263 1202.17 233.263 1202.47C233.263 1202.77 233.201 1203.04 233.079 1203.27C232.956 1203.5 232.768 1203.68 232.515 1203.81C232.261 1203.95 231.937 1204.01 231.543 1204.01H230.151V1203.45H231.523C231.795 1203.45 232.013 1203.41 232.179 1203.34C232.346 1203.26 232.467 1203.14 232.542 1203C232.618 1202.85 232.656 1202.67 232.656 1202.47C232.656 1202.27 232.618 1202.09 232.542 1201.94C232.466 1201.78 232.344 1201.67 232.176 1201.58C232.009 1201.5 231.788 1201.46 231.513 1201.46H230.429V1206H229.812ZM232.209 1203.71L233.462 1206H232.746L231.513 1203.71H232.209ZM234.168 1206V1202.18H234.755V1206H234.168ZM234.467 1201.55C234.352 1201.55 234.254 1201.51 234.171 1201.43C234.09 1201.35 234.049 1201.26 234.049 1201.15C234.049 1201.04 234.09 1200.94 234.171 1200.87C234.254 1200.79 234.352 1200.75 234.467 1200.75C234.581 1200.75 234.679 1200.79 234.76 1200.87C234.843 1200.94 234.884 1201.04 234.884 1201.15C234.884 1201.26 234.843 1201.35 234.76 1201.43C234.679 1201.51 234.581 1201.55 234.467 1201.55ZM237.329 1207.51C237.045 1207.51 236.802 1207.47 236.598 1207.4C236.394 1207.33 236.224 1207.24 236.088 1207.12C235.954 1207 235.847 1206.88 235.768 1206.75L236.235 1206.42C236.288 1206.49 236.355 1206.57 236.436 1206.66C236.518 1206.75 236.629 1206.83 236.77 1206.89C236.912 1206.96 237.098 1206.99 237.329 1206.99C237.637 1206.99 237.891 1206.92 238.092 1206.77C238.292 1206.62 238.393 1206.39 238.393 1206.07V1205.29H238.343C238.3 1205.36 238.239 1205.45 238.159 1205.55C238.081 1205.65 237.968 1205.74 237.821 1205.82C237.675 1205.9 237.478 1205.94 237.229 1205.94C236.921 1205.94 236.644 1205.87 236.399 1205.72C236.156 1205.58 235.962 1205.36 235.82 1205.09C235.679 1204.81 235.609 1204.47 235.609 1204.07C235.609 1203.68 235.677 1203.34 235.815 1203.05C235.953 1202.76 236.144 1202.53 236.389 1202.37C236.634 1202.21 236.918 1202.13 237.239 1202.13C237.488 1202.13 237.685 1202.17 237.831 1202.26C237.978 1202.34 238.091 1202.43 238.169 1202.53C238.249 1202.64 238.31 1202.72 238.353 1202.79H238.413V1202.18H238.979V1206.11C238.979 1206.44 238.905 1206.7 238.756 1206.91C238.608 1207.12 238.409 1207.27 238.159 1207.36C237.91 1207.46 237.634 1207.51 237.329 1207.51ZM237.309 1205.41C237.544 1205.41 237.743 1205.36 237.906 1205.25C238.068 1205.14 238.191 1204.99 238.276 1204.79C238.36 1204.58 238.403 1204.34 238.403 1204.06C238.403 1203.79 238.361 1203.54 238.278 1203.33C238.196 1203.12 238.073 1202.96 237.91 1202.84C237.748 1202.72 237.548 1202.66 237.309 1202.66C237.06 1202.66 236.853 1202.72 236.687 1202.85C236.523 1202.97 236.4 1203.14 236.317 1203.36C236.236 1203.57 236.195 1203.8 236.195 1204.06C236.195 1204.33 236.237 1204.56 236.32 1204.76C236.404 1204.97 236.528 1205.13 236.692 1205.24C236.858 1205.36 237.064 1205.41 237.309 1205.41ZM240.598 1203.7V1206H240.011V1200.91H240.598V1202.78H240.648C240.737 1202.58 240.871 1202.42 241.05 1202.31C241.231 1202.19 241.471 1202.13 241.771 1202.13C242.031 1202.13 242.259 1202.18 242.455 1202.29C242.65 1202.39 242.802 1202.55 242.91 1202.76C243.019 1202.98 243.074 1203.25 243.074 1203.57V1206H242.487V1203.61C242.487 1203.31 242.408 1203.08 242.251 1202.91C242.095 1202.74 241.879 1202.66 241.602 1202.66C241.41 1202.66 241.238 1202.7 241.085 1202.78C240.934 1202.86 240.815 1202.98 240.727 1203.14C240.641 1203.29 240.598 1203.48 240.598 1203.7ZM245.766 1202.18V1202.68H243.787V1202.18H245.766ZM244.364 1201.27H244.95V1204.91C244.95 1205.07 244.974 1205.2 245.022 1205.28C245.072 1205.36 245.135 1205.42 245.211 1205.44C245.289 1205.47 245.371 1205.48 245.457 1205.48C245.522 1205.48 245.575 1205.48 245.616 1205.47C245.658 1205.46 245.691 1205.46 245.716 1205.45L245.835 1205.98C245.795 1206 245.74 1206.01 245.669 1206.02C245.597 1206.04 245.507 1206.05 245.398 1206.05C245.232 1206.05 245.069 1206.01 244.91 1205.94C244.753 1205.87 244.622 1205.76 244.518 1205.62C244.415 1205.47 244.364 1205.29 244.364 1205.07V1201.27ZM249.242 1203.04L248.715 1203.19C248.682 1203.1 248.633 1203.01 248.568 1202.93C248.506 1202.85 248.419 1202.78 248.31 1202.72C248.201 1202.67 248.061 1202.64 247.89 1202.64C247.656 1202.64 247.461 1202.69 247.306 1202.8C247.152 1202.91 247.075 1203.04 247.075 1203.21C247.075 1203.35 247.128 1203.47 247.234 1203.55C247.34 1203.64 247.505 1203.71 247.731 1203.76L248.298 1203.9C248.639 1203.98 248.893 1204.11 249.061 1204.28C249.228 1204.45 249.312 1204.67 249.312 1204.94C249.312 1205.15 249.249 1205.35 249.123 1205.52C248.999 1205.7 248.825 1205.83 248.601 1205.93C248.377 1206.03 248.117 1206.08 247.82 1206.08C247.431 1206.08 247.109 1206 246.853 1205.83C246.598 1205.66 246.437 1205.41 246.369 1205.09L246.925 1204.95C246.978 1205.15 247.079 1205.31 247.226 1205.41C247.375 1205.51 247.57 1205.56 247.81 1205.56C248.084 1205.56 248.301 1205.5 248.462 1205.39C248.624 1205.27 248.705 1205.13 248.705 1204.97C248.705 1204.83 248.659 1204.72 248.566 1204.63C248.473 1204.54 248.331 1204.47 248.138 1204.43L247.502 1204.28C247.152 1204.2 246.896 1204.07 246.731 1203.89C246.569 1203.72 246.488 1203.5 246.488 1203.24C246.488 1203.02 246.548 1202.83 246.669 1202.66C246.792 1202.5 246.959 1202.37 247.169 1202.27C247.381 1202.18 247.621 1202.13 247.89 1202.13C248.268 1202.13 248.564 1202.21 248.78 1202.38C248.997 1202.55 249.151 1202.77 249.242 1203.04ZM252.159 1206V1200.91H253.879C254.277 1200.91 254.603 1200.98 254.859 1201.11C255.114 1201.25 255.303 1201.43 255.425 1201.67C255.548 1201.9 255.609 1202.17 255.609 1202.47C255.609 1202.77 255.548 1203.04 255.425 1203.27C255.303 1203.5 255.115 1203.68 254.861 1203.81C254.608 1203.95 254.284 1204.01 253.889 1204.01H252.497V1203.45H253.869C254.141 1203.45 254.36 1203.41 254.526 1203.34C254.693 1203.26 254.814 1203.14 254.889 1203C254.965 1202.85 255.003 1202.67 255.003 1202.47C255.003 1202.27 254.965 1202.09 254.889 1201.94C254.812 1201.78 254.69 1201.67 254.523 1201.58C254.356 1201.5 254.135 1201.46 253.859 1201.46H252.776V1206H252.159ZM254.555 1203.71L255.808 1206H255.092L253.859 1203.71H254.555ZM258.075 1206.08C257.707 1206.08 257.39 1206 257.123 1205.84C256.858 1205.67 256.653 1205.44 256.509 1205.15C256.366 1204.85 256.295 1204.51 256.295 1204.12C256.295 1203.73 256.366 1203.38 256.509 1203.09C256.653 1202.79 256.854 1202.55 257.11 1202.39C257.369 1202.22 257.671 1202.13 258.015 1202.13C258.214 1202.13 258.411 1202.17 258.604 1202.23C258.798 1202.3 258.975 1202.41 259.134 1202.55C259.293 1202.7 259.42 1202.9 259.514 1203.14C259.609 1203.38 259.656 1203.68 259.656 1204.04V1204.29H256.713V1203.78H259.059C259.059 1203.57 259.016 1203.37 258.93 1203.21C258.846 1203.04 258.725 1202.9 258.567 1202.81C258.411 1202.71 258.227 1202.66 258.015 1202.66C257.782 1202.66 257.579 1202.72 257.409 1202.83C257.24 1202.95 257.11 1203.1 257.018 1203.28C256.927 1203.46 256.882 1203.66 256.882 1203.87V1204.21C256.882 1204.5 256.931 1204.74 257.031 1204.94C257.132 1205.14 257.272 1205.29 257.451 1205.4C257.63 1205.5 257.838 1205.55 258.075 1205.55C258.229 1205.55 258.368 1205.53 258.493 1205.49C258.619 1205.44 258.727 1205.38 258.818 1205.29C258.909 1205.2 258.98 1205.09 259.029 1204.96L259.596 1205.12C259.537 1205.31 259.436 1205.48 259.295 1205.62C259.155 1205.77 258.981 1205.88 258.773 1205.96C258.566 1206.04 258.333 1206.08 258.075 1206.08ZM263.211 1203.04L262.684 1203.19C262.651 1203.1 262.602 1203.01 262.537 1202.93C262.474 1202.85 262.388 1202.78 262.279 1202.72C262.169 1202.67 262.029 1202.64 261.859 1202.64C261.625 1202.64 261.43 1202.69 261.274 1202.8C261.12 1202.91 261.043 1203.04 261.043 1203.21C261.043 1203.35 261.096 1203.47 261.202 1203.55C261.308 1203.64 261.474 1203.71 261.7 1203.76L262.266 1203.9C262.608 1203.98 262.862 1204.11 263.029 1204.28C263.197 1204.45 263.28 1204.67 263.28 1204.94C263.28 1205.15 263.217 1205.35 263.092 1205.52C262.967 1205.7 262.793 1205.83 262.57 1205.93C262.346 1206.03 262.086 1206.08 261.789 1206.08C261.4 1206.08 261.077 1206 260.822 1205.83C260.567 1205.66 260.405 1205.41 260.337 1205.09L260.894 1204.95C260.947 1205.15 261.047 1205.31 261.195 1205.41C261.344 1205.51 261.539 1205.56 261.779 1205.56C262.052 1205.56 262.27 1205.5 262.43 1205.39C262.593 1205.27 262.674 1205.13 262.674 1204.97C262.674 1204.83 262.628 1204.72 262.535 1204.63C262.442 1204.54 262.299 1204.47 262.107 1204.43L261.471 1204.28C261.121 1204.2 260.864 1204.07 260.7 1203.89C260.538 1203.72 260.457 1203.5 260.457 1203.24C260.457 1203.02 260.517 1202.83 260.638 1202.66C260.761 1202.5 260.927 1202.37 261.138 1202.27C261.35 1202.18 261.59 1202.13 261.859 1202.13C262.236 1202.13 262.533 1202.21 262.749 1202.38C262.966 1202.55 263.12 1202.77 263.211 1203.04ZM265.722 1206.08C265.354 1206.08 265.037 1206 264.77 1205.84C264.505 1205.67 264.301 1205.44 264.156 1205.15C264.014 1204.85 263.943 1204.51 263.943 1204.12C263.943 1203.73 264.014 1203.38 264.156 1203.09C264.301 1202.79 264.501 1202.55 264.758 1202.39C265.016 1202.22 265.318 1202.13 265.663 1202.13C265.862 1202.13 266.058 1202.17 266.252 1202.23C266.446 1202.3 266.622 1202.41 266.781 1202.55C266.94 1202.7 267.067 1202.9 267.162 1203.14C267.256 1203.38 267.303 1203.68 267.303 1204.04V1204.29H264.36V1203.78H266.707C266.707 1203.57 266.664 1203.37 266.578 1203.21C266.493 1203.04 266.372 1202.9 266.215 1202.81C266.059 1202.71 265.875 1202.66 265.663 1202.66C265.429 1202.66 265.227 1202.72 265.056 1202.83C264.887 1202.95 264.757 1203.1 264.666 1203.28C264.575 1203.46 264.529 1203.66 264.529 1203.87V1204.21C264.529 1204.5 264.579 1204.74 264.678 1204.94C264.779 1205.14 264.919 1205.29 265.098 1205.4C265.277 1205.5 265.485 1205.55 265.722 1205.55C265.877 1205.55 266.016 1205.53 266.14 1205.49C266.266 1205.44 266.375 1205.38 266.466 1205.29C266.557 1205.2 266.627 1205.09 266.677 1204.96L267.244 1205.12C267.184 1205.31 267.084 1205.48 266.943 1205.62C266.802 1205.77 266.628 1205.88 266.421 1205.96C266.214 1206.04 265.981 1206.08 265.722 1206.08ZM268.154 1206V1202.18H268.721V1202.76H268.76C268.83 1202.57 268.956 1202.42 269.138 1202.3C269.32 1202.18 269.526 1202.12 269.755 1202.12C269.798 1202.12 269.852 1202.12 269.916 1202.12C269.981 1202.13 270.03 1202.13 270.063 1202.13V1202.73C270.043 1202.72 269.997 1202.72 269.926 1202.71C269.857 1202.69 269.783 1202.69 269.705 1202.69C269.519 1202.69 269.354 1202.73 269.208 1202.81C269.064 1202.88 268.949 1202.99 268.865 1203.12C268.782 1203.26 268.74 1203.41 268.74 1203.58V1206H268.154ZM273.955 1202.18L272.543 1206H271.946L270.534 1202.18H271.171L272.225 1205.22H272.264L273.318 1202.18H273.955ZM276.151 1206.08C275.783 1206.08 275.466 1206 275.199 1205.84C274.934 1205.67 274.729 1205.44 274.585 1205.15C274.443 1204.85 274.371 1204.51 274.371 1204.12C274.371 1203.73 274.443 1203.38 274.585 1203.09C274.729 1202.79 274.93 1202.55 275.187 1202.39C275.445 1202.22 275.747 1202.13 276.091 1202.13C276.29 1202.13 276.487 1202.17 276.681 1202.23C276.874 1202.3 277.051 1202.41 277.21 1202.55C277.369 1202.7 277.496 1202.9 277.59 1203.14C277.685 1203.38 277.732 1203.68 277.732 1204.04V1204.29H274.789V1203.78H277.135C277.135 1203.57 277.092 1203.37 277.006 1203.21C276.922 1203.04 276.801 1202.9 276.643 1202.81C276.488 1202.71 276.304 1202.66 276.091 1202.66C275.858 1202.66 275.656 1202.72 275.485 1202.83C275.316 1202.95 275.186 1203.1 275.095 1203.28C275.003 1203.46 274.958 1203.66 274.958 1203.87V1204.21C274.958 1204.5 275.008 1204.74 275.107 1204.94C275.208 1205.14 275.348 1205.29 275.527 1205.4C275.706 1205.5 275.914 1205.55 276.151 1205.55C276.305 1205.55 276.444 1205.53 276.569 1205.49C276.695 1205.44 276.803 1205.38 276.894 1205.29C276.985 1205.2 277.056 1205.09 277.106 1204.96L277.672 1205.12C277.613 1205.31 277.512 1205.48 277.372 1205.62C277.231 1205.77 277.057 1205.88 276.85 1205.96C276.642 1206.04 276.41 1206.08 276.151 1206.08ZM280.024 1206.08C279.706 1206.08 279.425 1206 279.182 1205.84C278.938 1205.68 278.747 1205.45 278.61 1205.15C278.472 1204.86 278.403 1204.51 278.403 1204.1C278.403 1203.7 278.472 1203.35 278.61 1203.06C278.747 1202.76 278.939 1202.53 279.184 1202.37C279.429 1202.21 279.713 1202.13 280.034 1202.13C280.283 1202.13 280.479 1202.17 280.623 1202.26C280.769 1202.34 280.88 1202.43 280.956 1202.53C281.034 1202.64 281.095 1202.72 281.138 1202.79H281.188V1200.91H281.774V1206H281.207V1205.41H281.138C281.095 1205.48 281.033 1205.57 280.954 1205.68C280.874 1205.78 280.761 1205.87 280.613 1205.96C280.466 1206.04 280.269 1206.08 280.024 1206.08ZM280.104 1205.55C280.339 1205.55 280.538 1205.49 280.7 1205.37C280.863 1205.24 280.986 1205.07 281.071 1204.85C281.155 1204.63 281.198 1204.38 281.198 1204.09C281.198 1203.81 281.156 1203.56 281.073 1203.34C280.99 1203.13 280.868 1202.96 280.705 1202.84C280.543 1202.72 280.342 1202.66 280.104 1202.66C279.855 1202.66 279.648 1202.72 279.482 1202.85C279.318 1202.98 279.195 1203.15 279.112 1203.37C279.031 1203.58 278.99 1203.82 278.99 1204.09C278.99 1204.36 279.032 1204.61 279.114 1204.83C279.199 1205.05 279.323 1205.23 279.487 1205.36C279.653 1205.49 279.858 1205.55 280.104 1205.55ZM283.316 1206.04C283.193 1206.04 283.088 1206 283 1205.91C282.912 1205.82 282.868 1205.71 282.868 1205.59C282.868 1205.47 282.912 1205.36 283 1205.28C283.088 1205.19 283.193 1205.14 283.316 1205.14C283.438 1205.14 283.544 1205.19 283.631 1205.28C283.719 1205.36 283.763 1205.47 283.763 1205.59C283.763 1205.67 283.742 1205.75 283.701 1205.82C283.661 1205.88 283.607 1205.94 283.539 1205.98C283.473 1206.02 283.399 1206.04 283.316 1206.04Z" fill="#808080" fill-opacity="0.25"/>
</g>
<defs>
<filter id="filter0_d_2408_341" x="0" y="0" width="1288" height="1240" filterUnits="userSpaceOnUse" color-interpolation-filters="sRGB">
<feFlood flood-opacity="0" result="BackgroundImageFix"/>
<feColorMatrix in="SourceAlpha" type="matrix" values="0 0 0 0 0 0 0 0 0 0 0 0 0 0 0 0 0 0 127 0" result="hardAlpha"/>
<feOffset dy="4"/>
<feGaussianBlur stdDeviation="2"/>
<feComposite in2="hardAlpha" operator="out"/>
<feColorMatrix type="matrix" values="0 0 0 0 0 0 0 0 0 0 0 0 0 0 0 0 0 0 0.25 0"/>
<feBlend mode="normal" in2="BackgroundImageFix" result="effect1_dropShadow_2408_341"/>
<feBlend mode="normal" in="SourceGraphic" in2="effect1_dropShadow_2408_341" result="shape"/>
</filter>
<filter id="filter1_f_2408_341" x="-131" y="-344.792" width="910.845" height="724.671" filterUnits="userSpaceOnUse" color-interpolation-filters="sRGB">
<feFlood flood-opacity="0" result="BackgroundImageFix"/>
<feBlend mode="normal" in="SourceGraphic" in2="BackgroundImageFix" result="shape"/>
<feGaussianBlur stdDeviation="120" result="effect1_foregroundBlur_2408_341"/>
</filter>
<filter id="filter2_f_2408_341" x="343.226" y="-348.568" width="1055.77" height="709.136" filterUnits="userSpaceOnUse" color-interpolation-filters="sRGB">
<feFlood flood-opacity="0" result="BackgroundImageFix"/>
<feBlend mode="normal" in="SourceGraphic" in2="BackgroundImageFix" result="shape"/>
<feGaussianBlur stdDeviation="120" result="effect1_foregroundBlur_2408_341"/>
</filter>
<filter id="filter3_f_2408_341" x="62" y="-438" width="1177" height="888" filterUnits="userSpaceOnUse" color-interpolation-filters="sRGB">
<feFlood flood-opacity="0" result="BackgroundImageFix"/>
<feBlend mode="normal" in="SourceGraphic" in2="BackgroundImageFix" result="shape"/>
<feGaussianBlur stdDeviation="120" result="effect1_foregroundBlur_2408_341"/>
</filter>
<filter id="filter4_f_2408_341" x="498.154" y="860.931" width="910.846" height="758.069" filterUnits="userSpaceOnUse" color-interpolation-filters="sRGB">
<feFlood flood-opacity="0" result="BackgroundImageFix"/>
<feBlend mode="normal" in="SourceGraphic" in2="BackgroundImageFix" result="shape"/>
<feGaussianBlur stdDeviation="120" result="effect1_foregroundBlur_2408_341"/>
</filter>
<filter id="filter5_f_2408_341" x="82" y="745" width="1232" height="861" filterUnits="userSpaceOnUse" color-interpolation-filters="sRGB">
<feFlood flood-opacity="0" result="BackgroundImageFix"/>
<feBlend mode="normal" in="SourceGraphic" in2="BackgroundImageFix" result="shape"/>
<feGaussianBlur stdDeviation="120" result="effect1_foregroundBlur_2408_341"/>
</filter>
<filter id="filter6_f_2408_341" x="-121" y="795.828" width="1055.78" height="740.414" filterUnits="userSpaceOnUse" color-interpolation-filters="sRGB">
<feFlood flood-opacity="0" result="BackgroundImageFix"/>
<feBlend mode="normal" in="SourceGraphic" in2="BackgroundImageFix" result="shape"/>
<feGaussianBlur stdDeviation="120" result="effect1_foregroundBlur_2408_341"/>
</filter>
<clipPath id="clip0_2408_341">
<rect width="1280" height="1232" fill="white" transform="translate(4)"/>
</clipPath>
</defs>
</svg>
